<svg width="11" height="16" viewBox="0 0 11 16" fill="none" xmlns="http://www.w3.org/2000/svg">
<path opacity="0.4" d="M3.00187 14.1984C3.00219 14.395 3.06031 14.5875 3.16937 14.7512L3.70344 15.5541C3.79467 15.6913 3.91841 15.8039 4.06366 15.8817C4.2089 15.9596 4.37114 16.0003 4.53594 16.0003H6.46438C6.62917 16.0003 6.79141 15.9596 6.93665 15.8817C7.0819 15.8039 7.20564 15.6913 7.29688 15.5541L7.83094 14.7512C7.93995 14.5875 7.99822 14.3952 7.99844 14.1984L7.99969 13H3.00031L3.00187 14.1984ZM0 5.5C0 6.88656 0.514063 8.15156 1.36125 9.11812C1.8775 9.70718 2.685 10.9378 2.99281 11.9759C2.99406 11.9841 2.995 11.9922 2.99625 12.0003H8.00375C8.005 11.9922 8.00594 11.9844 8.00719 11.9759C8.315 10.9378 9.1225 9.70718 9.63875 9.11812C10.4859 8.15156 11 6.88656 11 5.5C11 2.45656 8.52844 -0.00937887 5.48281 -3.87451e-06C2.295 0.00968363 0 2.59281 0 5.5ZM5.5 3C4.12156 3 3 4.12156 3 5.5C3 5.77625 2.77625 6 2.5 6C2.22375 6 2 5.77625 2 5.5C2 3.57 3.57 2 5.5 2C5.77625 2 6 2.22375 6 2.5C6 2.77625 5.77625 3 5.5 3Z" fill="#9FA2B4"/>
</svg>
