<svg width="18" height="19" viewBox="0 0 18 19" fill="none" xmlns="http://www.w3.org/2000/svg">
<path d="M7.99999 18.5C9.10374 18.5 9.99905 17.6047 9.99905 16.5H6.00093C6.00093 17.6047 6.89624 18.5 7.99999 18.5ZM14.7309 13.8216C14.1272 13.1728 12.9975 12.1969 12.9975 9C12.9975 6.57188 11.295 4.62812 8.99937 4.15125V3.5C8.99937 2.94781 8.55187 2.5 7.99999 2.5C7.44812 2.5 7.00062 2.94781 7.00062 3.5V4.15125C4.70499 4.62812 3.00249 6.57188 3.00249 9C3.00249 12.1969 1.8728 13.1728 1.26905 13.8216C1.08155 14.0231 0.998429 14.2641 0.999991 14.5C1.00343 15.0125 1.40562 15.5 2.00312 15.5H13.9969C14.5944 15.5 14.9969 15.0125 15 14.5C15.0016 14.2641 14.9184 14.0228 14.7309 13.8216Z" fill="#C5C7CD"/>
<circle cx="13" cy="4.5" r="3.75" fill="#3751FF" stroke="#F7F8FC" stroke-width="1.5"/>
</svg>
