<svg width="12" height="16" viewBox="0 0 12 16" fill="none" xmlns="http://www.w3.org/2000/svg">
<path opacity="0.4" d="M3.03506 11.3322C2.7635 11.0606 2.90506 11.1372 2.25006 10.9619C1.95287 10.8822 1.69162 10.7291 1.45537 10.5456L0.0375617 14.0219C-0.0996258 14.3584 0.156624 14.7241 0.519749 14.7103L2.16631 14.6475L3.29881 15.8437C3.54881 16.1075 3.98756 16.0253 4.12475 15.6887L5.75131 11.7006C5.41256 11.8894 5.03662 12 4.64787 12C4.0385 12 3.466 11.7628 3.03506 11.3322ZM11.9626 14.0219L10.5447 10.5456C10.3085 10.7294 10.0472 10.8822 9.75006 10.9619C9.09162 11.1381 9.236 11.0612 8.96506 11.3322C8.53412 11.7628 7.96131 12 7.35194 12C6.96319 12 6.58725 11.8891 6.2485 11.7006L7.87506 15.6887C8.01225 16.0253 8.45131 16.1075 8.701 15.8437L9.83381 14.6475L11.4804 14.7103C11.8435 14.7241 12.0997 14.3581 11.9626 14.0219ZM8.21881 10.625C8.69631 10.1391 8.751 10.1809 9.431 9.99562C9.86506 9.87718 10.2044 9.53187 10.3207 9.08999C10.5544 8.20249 10.4938 8.30968 11.1316 7.66031C11.4494 7.33687 11.5735 6.8653 11.4572 6.42343C11.2238 5.53655 11.2235 5.66031 11.4572 4.77249C11.5735 4.33062 11.4494 3.85906 11.1316 3.53562C10.4938 2.88624 10.5544 2.99312 10.3207 2.10593C10.2044 1.66406 9.86506 1.31874 9.431 1.20031C8.55975 0.962493 8.66475 1.02468 8.02631 0.374993C7.7085 0.0515551 7.24506 -0.0750074 6.811 0.0434301C5.94006 0.28093 6.06162 0.281243 5.18912 0.0434301C4.75506 -0.0750074 4.29162 0.0512426 3.97381 0.374993C3.336 1.02437 3.441 0.962493 2.56944 1.20031C2.13537 1.31874 1.796 1.66406 1.67975 2.10593C1.44631 2.99312 1.50662 2.88624 0.868812 3.53562C0.550999 3.85906 0.426624 4.33062 0.543187 4.77249C0.776624 5.65874 0.776937 5.53499 0.543187 6.42312C0.426937 6.86499 0.550999 7.33656 0.868812 7.66031C1.50662 8.30968 1.446 8.20249 1.67975 9.08999C1.796 9.53187 2.13537 9.87718 2.56944 9.99562C3.26881 10.1862 3.321 10.1562 3.78131 10.625C4.19475 11.0459 4.83881 11.1212 5.33569 10.8069C5.53438 10.6807 5.76487 10.6137 6.00022 10.6137C6.23557 10.6137 6.46606 10.6807 6.66475 10.8069C7.16131 11.1212 7.80537 11.0459 8.21881 10.625ZM3.05194 5.49874C3.05194 3.84156 4.37194 2.49812 6.00006 2.49812C7.62819 2.49812 8.94819 3.84156 8.94819 5.49874C8.94819 7.15593 7.62819 8.49937 6.00006 8.49937C4.37194 8.49937 3.05194 7.15593 3.05194 5.49874Z" fill="#9FA2B4"/>
</svg>
